<svg xmlns="http://www.w3.org/2000/svg"><defs><symbol id="logo" viewBox="0 0 41 32"><path d="M38.196.196C34.335.417 26.664 1.215 21.928 4.12c-.328.2-.513.557-.513.929v25.676c0 .815.89 1.331 1.64.952 4.872-2.457 11.921-3.128 15.405-3.31 1.19-.062 2.115-1.018 2.115-2.164V2.364c0-1.25-1.081-2.24-2.379-2.168zM18.649 4.121C13.913 1.215 6.24.417 2.381.197c-1.3-.073-2.38.917-2.38 2.167v23.84c0 1.146.925 2.101 2.115 2.164 3.486.183 10.537.854 15.412 3.314.747.377 1.634-.137 1.634-.951V5.03c0-.383-.203-.72-.507-.907l-.005-.003z"/></symbol><symbol id="button-vector" viewBox="0 0 16 32"><path d="m14.02 17.063-8.501 8.498a1.49 1.49 0 0 1-2.119 0l-1.412-1.412c-.272-.27-.44-.645-.44-1.059s.168-.788.44-1.059l6.025-6.027-6.025-6.025c-.272-.271-.44-.645-.44-1.059s.168-.788.44-1.059l1.406-1.426a1.49 1.49 0 0 1 2.119 0l8.5 8.5c.594.587.594 1.538.007 2.126z"/></symbol><symbol id="university" viewBox="0 0 32 32"><path d="M31 8v1a.498.498 0 0 1-.5.5H29v.75a.75.75 0 0 1-.75.75H3.75a.75.75 0 0 1-.75-.75V9.5H1.5A.498.498 0 0 1 1 9V8a.5.5 0 0 1 .308-.462l14.5-5.5a.496.496 0 0 1 .382 0l14.5 5.5a.503.503 0 0 1 .308.462zm-1.5 19h-27A1.5 1.5 0 0 0 1 28.5v1a.498.498 0 0 0 .5.5h29a.498.498 0 0 0 .5-.5v-1a1.5 1.5 0 0 0-1.5-1.5zM6 12v12H3.75a.75.75 0 0 0-.75.75V26h26v-1.25a.75.75 0 0 0-.75-.75H26V12h-4v12h-4V12h-4v12h-4V12H6z"/></symbol><symbol id="pencil" viewBox="0 0 32 32"><path d="m31.119 8.881-2.881 2.881a.75.75 0 0 1-1.063 0l-6.938-6.937a.75.75 0 0 1 0-1.063L23.118.881a3.006 3.006 0 0 1 4.244 0l3.756 3.756a2.995 2.995 0 0 1 0 4.244zM17.762 6.237 1.349 22.649.024 30.243a1.503 1.503 0 0 0 1.738 1.738l7.594-1.331 16.412-16.412a.75.75 0 0 0 0-1.063L18.83 6.238a.758.758 0 0 0-1.069 0zM7.756 21.244a.872.872 0 0 1 0-1.238l9.625-9.625c.344-.344.894-.344 1.238 0s.344.894 0 1.238l-9.625 9.625a.87.87 0 0 1-1.237 0zM5.5 26.5h3v2.269l-4.031.706-1.944-1.944.706-4.031H5.5v3z"/></symbol><symbol id="book" viewBox="0 0 32 32"><path d="M22 6a6 6 0 1 0-12 0 6 6 0 0 0 12 0zm-7.401 9.069c-3.708-2.27-9.714-2.894-12.737-3.066-1.016-.057-1.863.716-1.863 1.693v13.925c0 .896.724 1.643 1.656 1.691 2.729.143 8.249.667 12.065 2.589.586.295 1.28-.107 1.28-.742V15.785a.832.832 0 0 0-.401-.716zm15.538-3.066c-3.022.171-9.029.796-12.736 3.066a.848.848 0 0 0-.401.727v15.362c0 .637.696 1.039 1.284.744 3.815-1.92 9.333-2.444 12.061-2.588.931-.049 1.656-.796 1.656-1.691V13.697c-.001-.977-.848-1.751-1.863-1.693z"/></symbol><symbol id="icon-instagram" viewBox="0 0 32 32"><path fill="#fff" style="fill:var(--color1,#fff)" d="M7.25 32V10.901H.688V32H7.25zM3.934 8.078c2.116 0 3.81-1.764 3.81-3.881 0-2.046-1.693-3.74-3.81-3.74-2.047 0-3.74 1.694-3.74 3.74 0 2.117 1.693 3.881 3.74 3.881zM31.736 32h.071V20.428c0-5.646-1.271-10.021-7.904-10.021-3.175 0-5.292 1.764-6.209 3.387h-.071v-2.893h-6.28V32h6.563V21.557c0-2.752.493-5.363 3.881-5.363 3.386 0 3.458 3.104 3.458 5.574V32h6.491z"/></symbol><symbol id="icon-youtube" viewBox="0 0 45 32"><path fill="#fff" style="fill:var(--color1,#fff)" d="M43.665 5.831c-.486-1.944-2.027-3.484-3.89-3.97C36.292.889 22.519.889 22.519.889s-13.855 0-17.338.972c-1.862.486-3.403 2.027-3.889 3.97C.32 9.232.32 16.525.32 16.525s0 7.211.972 10.695c.486 1.944 2.025 3.401 3.889 3.889C8.665 32 22.519 32 22.519 32s13.773 0 17.256-.891c1.864-.486 3.404-1.944 3.89-3.889.972-3.484.972-10.695.972-10.695s0-7.291-.972-10.694zM17.982 23.087V9.962l11.505 6.562-11.505 6.562z"/></symbol><symbol id="icon-twitter" viewBox="0 0 37 32"><path fill="#fff" style="fill:var(--color1,#fff)" d="M33.469 8.284c1.458-1.094 2.771-2.406 3.792-3.938a14.363 14.363 0 0 1-4.375 1.167c1.604-.948 2.771-2.406 3.355-4.229a15.87 15.87 0 0 1-4.705 1.875l-.108.02A7.635 7.635 0 0 0 25.856.774h-.045.002-.001a7.655 7.655 0 0 0-7.655 7.655c0 .583.074 1.167.22 1.75A22.202 22.202 0 0 1 2.583 2.194l-.029-.036c-.657 1.094-1.021 2.406-1.021 3.865a7.536 7.536 0 0 0 3.426 6.345c-1.239-.074-2.479-.365-3.499-.948v.073c0 3.719 2.624 6.782 6.124 7.51-.582.146-1.312.292-1.968.292-.511 0-.948-.074-1.459-.146.949 3.062 3.792 5.25 7.147 5.323-2.625 2.043-5.906 3.282-9.479 3.282-.656 0-1.239-.074-1.823-.146 3.355 2.187 7.364 3.427 11.74 3.427 14.073 0 21.729-11.595 21.729-21.729V8.285z"/></symbol><symbol id="icon-facebook" viewBox="0 0 32 32"><path fill="#fff" style="fill:var(--color1,#fff)" d="M31.5 16.343c0-8.562-6.938-15.5-15.5-15.5S.5 7.781.5 16.343c0 7.75 5.625 14.188 13.062 15.312V20.843H9.624v-4.5h3.938v-3.375c0-3.876 2.313-6.063 5.812-6.063 1.751 0 3.501.313 3.501.313v3.813h-1.938c-1.937 0-2.562 1.187-2.562 2.437v2.875h4.312l-.688 4.5h-3.624v10.812C25.812 30.53 31.5 24.093 31.5 16.343z"/></symbol></defs></svg>